<svg viewBox="0 0 24 24" fill="none" xmlns="http://www.w3.org/2000/svg">
<path d="M11.9568 1.19222C14.286 0.697287 16.6876 1.11586 18.6716 2.94288L18.6842 2.95467C16.9925 3.33648 15.4702 4.05955 14.1887 5.16915C12.5443 6.59315 11.3423 8.61438 10.6669 11.2512C10.051 13.6594 8.98042 15.4101 7.59042 16.614C6.29724 17.7339 4.68742 18.4151 2.81523 18.6842C1.09831 16.7092 0.709651 14.341 1.19091 12.0431C1.67778 9.71927 3.05048 7.45906 4.83007 5.65089C5.09041 5.38629 5.35186 5.1228 5.6144 4.86041C7.40848 3.06685 9.65063 1.68339 11.9568 1.19317" fill="currentColor"/>
<path d="M4.31641 20.0457L4.3295 20.0575C6.31386 21.8841 8.71539 22.3031 11.044 21.8077C13.3501 21.3175 15.5921 19.934 17.3861 18.1404C17.6486 17.8778 17.9101 17.6141 18.1704 17.3494C19.9504 15.5412 21.3226 13.2815 21.8094 10.9576C22.2912 8.65916 21.9025 6.29098 20.1852 4.31592C18.3131 4.58507 16.7038 5.26621 15.4102 6.3862C14.0203 7.59009 12.9502 9.34077 12.3338 11.749C11.6585 14.3859 10.457 16.4072 8.8122 17.8312C7.53076 18.9408 6.00847 19.6639 4.31641 20.0457Z" fill="currentColor"/>
</svg>
