<svg width="24" height="24" viewBox="0 0 24 24" fill="none" xmlns="http://www.w3.org/2000/svg">
<path d="M19.2163 15.309C18.8772 14.3216 18.7043 13.2885 18.704 12.2487V9.67963C18.728 8.05186 18.1238 6.47328 17.0081 5.24868C15.8955 4.02267 14.3516 3.23428 12.6721 3.0345C11.7439 2.94192 10.7996 3.0345 9.90354 3.32638C9.00744 3.60283 8.19159 4.06444 7.50414 4.68035C6.81255 5.27977 6.26177 6.01399 5.88849 6.8341C5.51373 7.65382 5.31755 8.53864 5.31205 9.43403V12.2628C5.31031 13.2983 5.13741 14.3269 4.7998 15.3102L4 17.5849L4.64064 18.4309H9.32843C9.32843 19.1073 9.61598 19.7682 10.1122 20.2465C10.607 20.7223 11.2958 21 12.0007 21C12.7055 21 13.3916 20.7235 13.8878 20.2465C14.384 19.7695 14.6729 19.1073 14.6729 18.4309H19.3607L20 17.5849L19.2163 15.309ZM12.9436 19.3554C12.8204 19.4759 12.6737 19.5719 12.5119 19.6379C12.3501 19.7038 12.1764 19.7385 12.0007 19.7399C11.8246 19.7385 11.6506 19.7037 11.4885 19.6375C11.3265 19.5713 11.1797 19.475 11.0564 19.3541C10.9308 19.2358 10.8308 19.0949 10.7619 18.9393C10.6931 18.7838 10.6568 18.6167 10.6552 18.4476H13.3288C13.3343 18.6163 13.3029 18.7843 13.2368 18.9406C13.1707 19.097 13.0699 19.2383 12.9436 19.3554ZM5.5675 17.1567L6.0637 15.7243C6.45137 14.6085 6.65138 13.4405 6.65619 12.2641V9.43403C6.65619 8.71012 6.81668 8.00291 7.12029 7.35615C7.42389 6.69523 7.85589 6.11019 8.41628 5.63315C8.97668 5.14196 9.63337 4.77164 10.3369 4.55691C11.0564 4.32546 11.8081 4.24831 12.5437 4.32546C13.8917 4.49624 15.1277 5.1368 16.0171 6.12561C16.9068 7.11576 17.3849 8.38683 17.3599 9.69506V12.2796C17.3599 13.4484 17.5525 14.6172 17.9524 15.7397L18.4486 17.1708H5.56884V17.1554L5.5675 17.1567Z" fill="black"/>
</svg>
