<svg width="24" height="24" viewBox="0 0 24 24" fill="none" xmlns="http://www.w3.org/2000/svg">
<g clip-path="url(#clip0_1063_6789)">
<path fill-rule="evenodd" clip-rule="evenodd" d="M15.7005 3.26297C15.5389 3.09413 15.3245 3 15.1016 3C14.8787 3 14.6643 3.09413 14.5027 3.26297L7.49662 10.7006C7.33979 10.8645 7.21491 11.0618 7.12958 11.2805C7.04425 11.4992 7.00024 11.7347 7.00024 11.9727C7.00024 12.2107 7.04425 12.4462 7.12958 12.6649C7.21491 12.8836 7.33979 13.0809 7.49662 13.2449L14.5534 20.7374C14.8807 21.0839 15.4109 21.0884 15.7431 20.7464C15.8235 20.6649 15.8878 20.5661 15.9321 20.4561C15.9763 20.3462 15.9996 20.2273 16.0003 20.1071C16.0011 19.9868 15.9794 19.8677 15.9366 19.757C15.8937 19.6464 15.8306 19.5466 15.7513 19.4639L9.29334 12.6086C9.21486 12.5266 9.15237 12.4279 9.10967 12.3185C9.06696 12.2091 9.04494 12.0913 9.04494 11.9723C9.04494 11.8532 9.06696 11.7354 9.10967 11.626C9.15237 11.5166 9.21486 11.418 9.29334 11.336L15.6997 4.53467C15.7782 4.45277 15.8406 4.35416 15.8833 4.24485C15.926 4.13553 15.948 4.0178 15.948 3.89882C15.948 3.77985 15.926 3.66211 15.8833 3.5528C15.8406 3.44348 15.779 3.34487 15.7005 3.26297Z" fill="black"/>
</g>
<defs>
<clipPath id="clip0_1063_6789">
<rect width="9" height="18" fill="white" transform="translate(7 3)"/>
</clipPath>
</defs>
</svg>
