<svg width="24" height="24" viewBox="0 0 24 24" fill="none" xmlns="http://www.w3.org/2000/svg">
<path d="M5 5.6435C5 4.36828 5 3.73066 5.25433 3.24335C5.47803 2.81488 5.83497 2.46653 6.274 2.24821C6.77333 2 7.42667 2 8.73333 2H15.2667C16.5733 2 17.2267 2 17.726 2.24821C18.165 2.46653 18.522 2.81488 18.7457 3.24335C19 3.73066 19 4.36828 19 5.6435V20.7925C19 21.3459 19 21.6225 18.8822 21.774C18.8313 21.8398 18.7663 21.8941 18.6917 21.933C18.6172 21.972 18.5349 21.9946 18.4505 21.9994C18.2557 22.0108 18.02 21.8571 17.5487 21.5508L12 17.9403L6.45133 21.5497C5.98 21.8571 5.74433 22.0108 5.54833 21.9994C5.46414 21.9944 5.38206 21.9717 5.30773 21.9328C5.23341 21.8939 5.16862 21.8397 5.11783 21.774C5 21.6225 5 21.3459 5 20.7925V5.6435Z" fill="#6E4F36"/>
</svg>
