<svg width="20" height="21" viewBox="0 0 20 21" fill="none" xmlns="http://www.w3.org/2000/svg">
<path d="M3.66667 17.5859C3.20833 17.5859 2.81611 17.4229 2.49 17.0968C2.16389 16.7707 2.00056 16.3782 2 15.9193V4.2526C2 3.79427 2.16333 3.40205 2.49 3.07594C2.81667 2.74983 3.20889 2.58649 3.66667 2.58594H15.3333C15.7917 2.58594 16.1842 2.74927 16.5108 3.07594C16.8375 3.4026 17.0006 3.79483 17 4.2526V15.9193C17 16.3776 16.8369 16.7701 16.5108 17.0968C16.1847 17.4234 15.7922 17.5865 15.3333 17.5859H3.66667ZM9.5 13.4193C10.0278 13.4193 10.5069 13.2665 10.9375 12.9609C11.3681 12.6554 11.6667 12.2526 11.8333 11.7526H15.3333V4.2526H3.66667V11.7526H7.16667C7.33333 12.2526 7.63194 12.6554 8.0625 12.9609C8.49306 13.2665 8.97222 13.4193 9.5 13.4193ZM5.33333 10.2943H13.6667V8.6276H5.33333V10.2943ZM5.33333 7.3776H13.6667V5.71094H5.33333V7.3776Z" fill="#FFF9EE"/>
</svg>
