<svg width="24" height="25" viewBox="0 0 24 25" fill="none" xmlns="http://www.w3.org/2000/svg">
<path fill-rule="evenodd" clip-rule="evenodd" d="M3.82857 6C3.07839 6 2.35893 6.28859 1.82847 6.80227C1.29801 7.31596 1 8.01267 1 8.73913V17.2609C1 17.9873 1.29801 18.684 1.82847 19.1977C2.35893 19.7114 3.07839 20 3.82857 20H13.8857C14.6359 20 15.3554 19.7114 15.8858 19.1977C16.4163 18.684 16.7143 17.9873 16.7143 17.2609V16.3028L20.7258 18.2457C20.9654 18.3617 21.2316 18.4165 21.4992 18.4048C21.7668 18.3932 22.0269 18.3155 22.2547 18.1791C22.4826 18.0428 22.6706 17.8523 22.8011 17.6257C22.9315 17.3992 23 17.1441 23 16.8847V9.1153C23 8.85592 22.9315 8.60084 22.8011 8.37429C22.6706 8.14775 22.4826 7.95724 22.2547 7.82088C22.0269 7.68452 21.7668 7.60681 21.4992 7.59516C21.2316 7.5835 20.9654 7.63826 20.7258 7.75426L16.7143 9.696V8.73913C16.7143 8.01267 16.4163 7.31596 15.8858 6.80227C15.3554 6.28859 14.6359 6 13.8857 6H3.82857ZM16.7143 11.7388V14.2612L21.1143 16.3917V9.60713L16.7143 11.7388ZM14.8286 8.73913C14.8286 8.49698 14.7292 8.26474 14.5524 8.09351C14.3756 7.92228 14.1358 7.82609 13.8857 7.82609H3.82857C3.57851 7.82609 3.33869 7.92228 3.16187 8.09351C2.98505 8.26474 2.88571 8.49698 2.88571 8.73913V17.2609C2.88571 17.7649 3.30811 18.1739 3.82857 18.1739H13.8857C14.1358 18.1739 14.3756 18.0777 14.5524 17.9065C14.7292 17.7353 14.8286 17.503 14.8286 17.2609V8.73913Z" fill="black"/>
</svg>
