<svg width="16" height="16" viewBox="0 0 16 16" fill="none" xmlns="http://www.w3.org/2000/svg">
<g clip-path="url(#clip0_1434_54752)">
<rect width="16" height="16" fill="white"/>
<path d="M10.8919 6.21519C10.9559 6.15548 11.0076 6.08374 11.0439 6.00407C11.0802 5.9244 11.1005 5.83836 11.1035 5.75086C11.1066 5.66335 11.0924 5.5761 11.0617 5.49409C11.0311 5.41207 10.9846 5.3369 10.9249 5.27285C10.8652 5.20881 10.7934 5.15716 10.7138 5.12084C10.6341 5.08452 10.548 5.06426 10.4605 5.06119C10.373 5.05813 10.2858 5.07233 10.2038 5.10298C10.1218 5.13364 10.0466 5.18015 9.98254 5.23985L8.03188 7.05852L6.21321 5.10719C6.09152 4.98255 5.92588 4.91049 5.75174 4.90643C5.57759 4.90237 5.40878 4.96663 5.28141 5.08546C5.15405 5.20429 5.07825 5.36825 5.07023 5.54225C5.06222 5.71626 5.12263 5.88649 5.23854 6.01652L7.05721 7.96719L5.10587 9.78586C5.03957 9.84496 4.98575 9.91671 4.94756 9.99691C4.90938 10.0771 4.8876 10.1641 4.88352 10.2528C4.87943 10.3416 4.89312 10.4302 4.92377 10.5136C4.95443 10.5969 5.00143 10.6733 5.06202 10.7383C5.12261 10.8032 5.19557 10.8554 5.27661 10.8918C5.35765 10.9281 5.44514 10.9479 5.53394 10.95C5.62273 10.9521 5.71105 10.9364 5.7937 10.9038C5.87634 10.8713 5.95165 10.8226 6.01521 10.7605L7.96588 8.94252L9.78454 10.8932C9.84326 10.9607 9.91498 11.0157 9.99542 11.055C10.0759 11.0942 10.1634 11.1168 10.2527 11.1215C10.3421 11.1262 10.4315 11.1128 10.5156 11.0822C10.5997 11.0516 10.6768 11.0044 10.7422 10.9433C10.8077 10.8823 10.8602 10.8087 10.8966 10.727C10.933 10.6453 10.9526 10.557 10.9542 10.4675C10.9558 10.3781 10.9393 10.2892 10.9058 10.2062C10.8723 10.1232 10.8225 10.0478 10.7592 9.98452L8.94121 8.03385L10.8919 6.21519Z" fill="#6E4F36"/>
<path fill-rule="evenodd" clip-rule="evenodd" d="M0.666016 8.0013C0.666016 3.9513 3.94935 0.667969 7.99935 0.667969C12.0493 0.667969 15.3327 3.9513 15.3327 8.0013C15.3327 12.0513 12.0493 15.3346 7.99935 15.3346C3.94935 15.3346 0.666016 12.0513 0.666016 8.0013ZM7.99935 14.0013C7.21142 14.0013 6.4312 13.8461 5.70325 13.5446C4.97529 13.2431 4.31386 12.8011 3.75671 12.2439C3.19956 11.6868 2.7576 11.0254 2.45607 10.2974C2.15454 9.56945 1.99935 8.78923 1.99935 8.0013C1.99935 7.21337 2.15454 6.43316 2.45607 5.7052C2.7576 4.97725 3.19956 4.31581 3.75671 3.75866C4.31386 3.20151 4.97529 2.75955 5.70325 2.45802C6.4312 2.1565 7.21142 2.0013 7.99935 2.0013C9.59065 2.0013 11.1168 2.63344 12.242 3.75866C13.3672 4.88388 13.9993 6.41 13.9993 8.0013C13.9993 9.5926 13.3672 11.1187 12.242 12.2439C11.1168 13.3692 9.59065 14.0013 7.99935 14.0013Z" fill="#6E4F36"/>
</g>
<defs>
<clipPath id="clip0_1434_54752">
<rect width="16" height="16" fill="white"/>
</clipPath>
</defs>
</svg>
