<svg width="24" height="24" viewBox="0 0 24 24" fill="none" xmlns="http://www.w3.org/2000/svg">
<path fill-rule="evenodd" clip-rule="evenodd" d="M11 19L8.707 21.293C8.56715 21.4328 8.38898 21.528 8.19503 21.5666C8.00108 21.6052 7.80005 21.5853 7.61735 21.5097C7.43465 21.434 7.27848 21.3059 7.1686 21.1415C7.05871 20.977 7.00004 20.7838 7 20.586V19H3.5C3.10218 19 2.72064 18.842 2.43934 18.5607C2.15804 18.2794 2 17.8978 2 17.5V5.5C2 5.10218 2.15804 4.72064 2.43934 4.43934C2.72064 4.15804 3.10218 4 3.5 4H20.5C20.8978 4 21.2794 4.15804 21.5607 4.43934C21.842 4.72064 22 5.10218 22 5.5V17.5C22 17.8978 21.842 18.2794 21.5607 18.5607C21.2794 18.842 20.8978 19 20.5 19H11Z" fill="#6E4F36"/>
</svg>
