<svg width="22" height="22" viewBox="0 0 22 22" fill="none" xmlns="http://www.w3.org/2000/svg">
<path d="M15.8521 1H6.14785C3.30477 1 1 3.30477 1 6.14785V15.8521C1 18.6952 3.30477 21 6.14785 21H15.8521C18.6952 21 21 18.6952 21 15.8521V6.14785C21 3.30477 18.6952 1 15.8521 1Z" stroke="black" stroke-width="1.5" stroke-miterlimit="10"/>
<path d="M7.24678 9.74356C8.63677 9.74356 9.76358 8.61675 9.76358 7.22676C9.76358 5.83677 8.63677 4.70996 7.24678 4.70996C5.85679 4.70996 4.72998 5.83677 4.72998 7.22676C4.72998 8.61675 5.85679 9.74356 7.24678 9.74356Z" fill="black"/>
<path d="M16.2555 11.459H5.64054C5.13576 11.459 4.72656 11.8682 4.72656 12.373V12.3763C4.72656 12.8811 5.13576 13.2903 5.64054 13.2903H16.2555C16.7602 13.2903 17.1694 12.8811 17.1694 12.3763V12.373C17.1694 11.8682 16.7602 11.459 16.2555 11.459Z" fill="black"/>
<path d="M11.2218 14.9814H5.83537C5.33059 14.9814 4.92139 15.3906 4.92139 15.8954V15.8988C4.92139 16.4036 5.33059 16.8128 5.83537 16.8128H11.2218C11.7266 16.8128 12.1358 16.4036 12.1358 15.8988V15.8954C12.1358 15.3906 11.7266 14.9814 11.2218 14.9814Z" fill="black"/>
</svg>
