<svg width="24" height="24" viewBox="0 0 24 24" fill="none" xmlns="http://www.w3.org/2000/svg">
<g clip-path="url(#clip0_1208_28643)">
<path fill-rule="evenodd" clip-rule="evenodd" d="M12 0.75C18.213 0.75 23.25 5.787 23.25 12C23.25 18.213 18.213 23.25 12 23.25C5.787 23.25 0.75 18.213 0.75 12C0.75 5.787 5.787 0.75 12 0.75ZM16.5 8C16.9645 8 17.345 7.4565 17.022 7.1235C16.3702 6.45076 15.5897 5.9161 14.7269 5.55137C13.8641 5.18663 12.9367 4.99929 12 5.0005C8.134 5.0005 5 8.1345 5 12.0005C5 15.8665 8.134 19.0005 12 19.0005C13.97 19.0005 15.7495 18.187 17.0215 16.8775C17.345 16.5445 16.9645 16 16.5 16C15.4391 16 14.4217 15.5786 13.6716 14.8284C12.9214 14.0783 12.5 13.0609 12.5 12C12.5 10.9391 12.9214 9.92172 13.6716 9.17157C14.4217 8.42143 15.4391 8 16.5 8Z" fill="#6E4F36"/>
</g>
<defs>
<clipPath id="clip0_1208_28643">
<rect width="24" height="24" fill="white"/>
</clipPath>
</defs>
</svg>
