<svg width="24" height="24" viewBox="0 0 24 24" fill="none" xmlns="http://www.w3.org/2000/svg">
<path d="M11.104 7.299C13.6738 7.299 15.7508 9.55905 15.6539 12.1766C15.5612 14.6665 13.459 16.6967 10.9902 16.6967H7.73792C7.51885 16.6967 7.34191 16.518 7.34191 16.2967V7.69908C7.34191 7.47776 7.51885 7.299 7.73792 7.299H11.104ZM11.104 2H3.18803C2.53082 2 2 2.53628 2 3.20026V20.7997C2 21.4637 2.53082 22 3.18803 22H11.104C16.5681 22 21 17.5225 21 12.0021C21 6.4818 16.5723 2 11.104 2Z" stroke="black" stroke-width="2" stroke-miterlimit="10"/>
</svg>
