<svg width="21" height="22" viewBox="0 0 21 22" fill="none" xmlns="http://www.w3.org/2000/svg">
<path d="M10.104 6.299C12.6738 6.299 14.7508 8.55905 14.6539 11.1766C14.5612 13.6665 12.459 15.6967 9.99024 15.6967H6.73792C6.51885 15.6967 6.34191 15.518 6.34191 15.2967V6.69908C6.34191 6.47776 6.51885 6.299 6.73792 6.299H10.104ZM10.104 1H2.18803C1.53082 1 1 1.53628 1 2.20026V19.7997C1 20.4637 1.53082 21 2.18803 21H10.104C15.5681 21 20 16.5225 20 11.0021C20 5.4818 15.5723 1 10.104 1Z" stroke="black" stroke-width="2" stroke-miterlimit="10"/>
</svg>
