<svg width="23" height="24" viewBox="0 0 23 24" fill="none" xmlns="http://www.w3.org/2000/svg">
<path d="M11.0209 6.35998C14.1307 6.35998 16.6463 9.07198 16.5265 12.2136C16.4139 15.2016 13.8695 17.64 10.8843 17.64H6.94555C6.682 17.64 6.46637 17.424 6.46637 17.16V6.83999C6.46637 6.57599 6.682 6.35998 6.94555 6.35998H11.0185M11.0209 0H1.43751C0.644471 0 0 0.645589 0 1.44V22.56C0 23.3544 0.644471 24 1.43751 24H11.0209C17.6358 24 23 18.6264 23 12C23 5.37359 17.6358 0 11.0209 0Z" fill="#273552"/>
</svg>
