<svg width="22" height="23" viewBox="0 0 22 23" fill="none" xmlns="http://www.w3.org/2000/svg">
<path d="M6.01758 10.6991C6.01758 10.6991 6.75275 7.53918 8.55377 6.72161C9.05459 6.49451 9.66135 6.58535 10.0337 6.99738C10.4896 7.50024 10.8909 8.55789 10.4671 10.7673C10.4671 10.7673 11.96 6.31932 14.0274 6.61779C14.066 6.62428 14.1013 6.63077 14.1398 6.64375C14.4769 6.75081 15.9119 7.41914 14.5636 10.7673" stroke="black" stroke-width="0.88481" stroke-miterlimit="10"/>
<path d="M11.0579 10.7102C10.7015 11.69 10.1012 11.7484 9.48158 11.5213C8.86198 11.2909 8.27127 10.7686 8.81703 9.88292C9.41095 8.91612 9.95992 8.29321 10.5795 8.52356C11.1991 8.7539 11.4142 9.73368 11.0579 10.7135V10.7102Z" fill="black"/>
<path d="M6.5314 10.7305C6.35804 11.2041 6.08195 11.2398 5.79944 11.136C5.51692 11.0322 5.33714 10.8278 5.5105 10.3541C5.68386 9.88046 6.04985 9.57874 6.33236 9.68256C6.61487 9.78638 6.70476 10.2568 6.5314 10.7305Z" fill="black"/>
<path d="M15.3755 10.7119C15.2086 11.7404 14.4188 11.7501 13.7992 11.523C13.1796 11.2927 12.5793 10.7638 13.1347 9.88463C13.7639 8.88539 14.2776 8.29493 14.8972 8.52527C15.5168 8.75562 15.5457 9.66402 15.3755 10.7152V10.7119Z" fill="black"/>
<path d="M11.2256 0.521484C13.5045 0.397758 15.2651 0.823238 16.6279 1.55859C17.9916 2.29451 18.9869 3.35611 19.71 4.54688C21.1651 6.94349 21.5016 9.83768 21.5 11.5L21.4912 11.7695C21.3907 13.4247 20.3475 19.5541 12.708 22.4844C12.7784 22.2986 12.9834 21.9795 13.5576 21.5518C14.3174 20.9916 16.4001 19.9303 18.0527 17.9766C19.7462 15.9745 21.0402 13.0151 20.4512 8.55957L20.4482 8.53809L20.4434 8.5166L20.3428 8.09766C19.8125 6.04307 18.8756 4.57487 17.7109 3.55664C16.4724 2.47389 15.0094 1.92809 13.5869 1.69824C12.1663 1.46876 10.7705 1.55117 9.63965 1.73633C8.51798 1.91999 7.6168 2.21175 7.18652 2.42871C6.59366 2.72769 4.66258 3.77613 3.24121 5.66504C1.79674 7.58471 0.896136 10.3571 2.38867 13.9902L2.39551 14.0088L2.40527 14.0264C3.19155 15.5731 4.49759 16.9062 6.04492 17.6953C8.03365 18.7087 11.1861 19.0629 14.958 16.752L15.3252 16.5195C15.369 16.4909 15.4074 16.4605 15.4443 16.4336C15.3593 16.5346 15.2595 16.649 15.1406 16.7715C14.7669 17.1563 14.2561 17.6 13.6367 18.0107C12.394 18.8349 10.7521 19.5039 8.92285 19.3584H8.92188C5.57979 19.0933 3.4406 17.5093 2.15137 15.6172C0.930132 13.8247 0.468002 11.7471 0.501953 10.2334L0.514648 9.93848C0.603716 8.659 1.02504 6.42466 2.53711 4.45801C4.03351 2.51186 6.64202 0.770439 11.2256 0.521484Z" fill="black" stroke="black"/>
</svg>
