<svg width="24" height="24" viewBox="0 0 24 24" fill="none" xmlns="http://www.w3.org/2000/svg">
<path fill-rule="evenodd" clip-rule="evenodd" d="M11.8091 5.36328H5.11758C3.94762 5.36328 3 6.36807 3 7.6058V18.8163C3 20.0551 3.94762 21.0588 5.11758 21.0588H16.7643C17.9343 21.0588 18.8819 20.0551 18.8819 18.8163V10.6107L14.7378 14.9983C14.3759 15.3853 13.9046 15.6527 13.3868 15.7649L10.5481 16.3662C8.69524 16.758 7.06258 15.029 7.43316 13.0681L8.00067 10.0622C8.10338 9.5201 8.35537 9.02141 8.72489 8.63071L11.8091 5.36328Z" fill="#6E4F36"/>
<path fill-rule="evenodd" clip-rule="evenodd" d="M20.8361 3.39447C20.7291 3.12345 20.5722 2.87493 20.3735 2.66179C20.1781 2.45334 19.9425 2.28659 19.681 2.17157C19.4233 2.05842 19.145 2 18.8636 2C18.5822 2 18.3039 2.05842 18.0462 2.17157C17.7847 2.28659 17.5492 2.45334 17.3538 2.66179L16.7757 3.27377L19.7954 6.47132L20.3735 5.85828C20.5742 5.64676 20.7315 5.39781 20.8361 5.1256C21.0543 4.56917 21.0543 3.9509 20.8361 3.39447ZM18.2993 8.05633L15.2785 4.85772L10.2207 10.2152C10.1461 10.2947 10.0957 10.3939 10.0756 10.5011L9.50813 13.5081C9.43401 13.8998 9.76118 14.245 10.1307 14.1666L12.9704 13.5663C13.0737 13.5433 13.1677 13.4898 13.2404 13.4128L18.2993 8.05633Z" fill="#6E4F36"/>
</svg>
