<svg width="14" height="14" viewBox="0 0 14 14" fill="none" xmlns="http://www.w3.org/2000/svg">
<path d="M6.9998 11.5212C6.88381 11.5211 6.7726 11.475 6.69063 11.3929L2.74146 7.43205C2.20705 6.88684 1.90771 6.15383 1.90771 5.39038C1.90771 4.62693 2.20705 3.89392 2.74146 3.34871C3.28297 2.80727 4.01737 2.50309 4.78313 2.50309C5.54889 2.50309 6.28329 2.80727 6.8248 3.34871L6.9998 3.50038L7.16313 3.33705C7.43087 3.06638 7.74978 2.85169 8.1013 2.70547C8.45282 2.55926 8.82992 2.48444 9.21063 2.48538C9.59093 2.48368 9.96779 2.55757 10.3193 2.70278C10.6708 2.84798 10.9899 3.0616 11.2581 3.33121C11.7925 3.87642 12.0919 4.60943 12.0919 5.37288C12.0919 6.13633 11.7925 6.86934 11.2581 7.41455L7.30896 11.3754C7.26986 11.4192 7.22233 11.4547 7.16921 11.4797C7.1161 11.5048 7.05848 11.5189 6.9998 11.5212ZM4.78896 3.35455C4.52403 3.35262 4.26134 3.40317 4.01605 3.50329C3.77075 3.60341 3.54771 3.75112 3.3598 3.93788C2.98114 4.3183 2.76856 4.83321 2.76856 5.36996C2.76856 5.90672 2.98114 6.42162 3.3598 6.80205L6.9998 10.4654L10.634 6.81371C10.8222 6.62572 10.9715 6.40248 11.0733 6.15676C11.1752 5.91103 11.2276 5.64763 11.2276 5.38163C11.2276 5.11563 11.1752 4.85223 11.0733 4.6065C10.9715 4.36078 10.8222 4.13754 10.634 3.94955C10.4475 3.76243 10.2256 3.61444 9.98115 3.51427C9.73674 3.4141 9.47477 3.36376 9.21063 3.36621C8.9457 3.36429 8.68301 3.41484 8.43771 3.51496C8.19242 3.61508 7.96938 3.76278 7.78147 3.94955L7.30896 4.42205C7.22551 4.50124 7.11485 4.54538 6.9998 4.54538C6.88475 4.54538 6.77409 4.50124 6.69063 4.42205L6.21813 3.94955C6.03118 3.76068 5.80857 3.61082 5.56324 3.50868C5.3179 3.40654 5.05472 3.35415 4.78896 3.35455Z" fill="#A1A4A9"/>
</svg>
