<svg width="14" height="14" viewBox="0 0 14 14" fill="none" xmlns="http://www.w3.org/2000/svg">
<path d="M7.00224 11.5202C6.88625 11.5201 6.77504 11.474 6.69307 11.3919L2.74391 7.43107C2.20949 6.88586 1.91016 6.15285 1.91016 5.3894C1.91016 4.62596 2.20949 3.89295 2.74391 3.34774C3.28541 2.80629 4.01981 2.50211 4.78557 2.50211C5.55133 2.50211 6.28574 2.80629 6.82724 3.34774L7.00224 3.4994L7.16557 3.33607C7.43331 3.0654 7.75222 2.85071 8.10374 2.70449C8.45526 2.55828 8.83236 2.48346 9.21307 2.4844C9.59338 2.4827 9.97023 2.5566 10.3217 2.7018C10.6732 2.84701 10.9924 3.06062 11.2606 3.33024C11.795 3.87545 12.0943 4.60846 12.0943 5.3719C12.0943 6.13535 11.795 6.86836 11.2606 7.41357L7.31141 11.3744C7.2723 11.4182 7.22477 11.4537 7.17166 11.4788C7.11854 11.5038 7.06092 11.5179 7.00224 11.5202ZM4.79141 3.35357C4.52647 3.35164 4.26378 3.4022 4.01849 3.50232C3.77319 3.60244 3.55016 3.75014 3.36224 3.9369C2.98358 4.31733 2.771 4.83223 2.771 5.36899C2.771 5.90574 2.98358 6.42065 3.36224 6.80107L7.00224 10.4644L10.6364 6.81274C10.8246 6.62475 10.9739 6.40151 11.0758 6.15578C11.1776 5.91005 11.2301 5.64666 11.2301 5.38065C11.2301 5.11465 11.1776 4.85126 11.0758 4.60553C10.9739 4.3598 10.8246 4.13656 10.6364 3.94857C10.45 3.76145 10.228 3.61347 9.98359 3.5133C9.73918 3.41312 9.47721 3.36279 9.21307 3.36524C8.94814 3.36331 8.68545 3.41386 8.44015 3.51398C8.19486 3.6141 7.97182 3.76181 7.78391 3.94857L7.31141 4.42107C7.22795 4.50026 7.11729 4.5444 7.00224 4.5444C6.88719 4.5444 6.77653 4.50026 6.69307 4.42107L6.22057 3.94857C6.03362 3.7597 5.81101 3.60984 5.56568 3.5077C5.32034 3.40556 5.05716 3.35317 4.79141 3.35357Z" fill="white"/>
<path d="M6.91016 10.9844C4.11016 8.58437 2.41016 6.98425 2.41016 4.48271C4.01016 2.48271 6.57682 3.31613 7.41016 3.9828C10.9102 1.48425 11.2619 4.47893 11.4102 5.4828C10.9102 7.48425 8.41016 9.48438 6.91016 10.9844Z" fill="white"/>
</svg>
