<svg width="24" height="24" viewBox="0 0 24 24" fill="none" xmlns="http://www.w3.org/2000/svg">
<path d="M18.4726 7.8423C16.1361 8.04056 13.9984 9.82484 13.6389 10.1397C13.6274 10.1475 13.616 10.1319 13.6236 10.1203C15.5204 6.72276 14.725 4.41758 13.6121 3.02203C12.4993 1.62648 10.5337 1.69257 9.4744 3.02203C8.41511 4.35149 7.56998 6.72276 9.46293 10.1203C9.47058 10.1319 9.45911 10.1475 9.44763 10.1397C9.06522 9.8054 6.69807 7.83064 4.20855 7.82676C2.44562 7.82287 1.01156 9.31171 1.00009 11.1038C0.988614 12.8958 2.10909 15.0222 7.62351 14.6412C7.63881 14.6412 7.64264 14.6568 7.63116 14.6645C7.29081 14.8706 5.21048 16.1845 4.37299 18.1903C3.23722 20.8998 5.91412 23.7997 8.62927 22.7774C9.92565 22.2876 11.1417 20.9192 11.5318 17.6656C11.5318 17.65 11.5547 17.65 11.5547 17.6656C11.983 21.2769 13.4362 22.5675 14.8818 22.9096C17.3483 23.4888 19.6008 21.1914 18.8933 18.7229C18.2355 16.4216 15.811 14.89 15.4477 14.6723C15.4363 14.6645 15.4439 14.649 15.4554 14.649C20.4535 14.9911 21.8417 13.2846 22.0482 11.6208C22.3083 9.53329 19.9813 7.25 17.571 7.99429L18.4726 7.8423Z" fill="white" stroke="black" stroke-width="1.5" stroke-miterlimit="10"/>
<path d="M11.5018 14.2575C11.9773 14.2575 12.3627 13.864 12.3627 13.3787C12.3627 12.8934 11.9773 12.5 11.5018 12.5C11.0264 12.5 10.6409 12.8934 10.6409 13.3787C10.6409 13.864 11.0264 14.2575 11.5018 14.2575Z" fill="black"/>
</svg>
