<svg width="24" height="24" viewBox="0 0 24 24" fill="none" xmlns="http://www.w3.org/2000/svg">
<path d="M1 21.3714V9.54286C1 9.12667 1.09319 8.73238 1.27956 8.36C1.46594 7.98762 1.72275 7.68095 2.05 7.44L9.925 1.52571C10.3844 1.17524 10.9094 1 11.5 1C12.0906 1 12.6156 1.17524 13.075 1.52571L20.95 7.44C21.2781 7.68095 21.5354 7.98762 21.7217 8.36C21.9081 8.73238 22.0009 9.12667 22 9.54286V21.3714C22 22.0943 21.7427 22.7133 21.2282 23.2285C20.7137 23.7437 20.096 24.0009 19.375 24H15.4375C15.0656 24 14.7541 23.8738 14.503 23.6215C14.2519 23.3691 14.1259 23.0572 14.125 22.6857V16.1143C14.125 15.7419 13.999 15.43 13.747 15.1785C13.495 14.927 13.1835 14.8009 12.8125 14.8H10.1875C9.81562 14.8 9.50412 14.9262 9.253 15.1785C9.00187 15.4309 8.87587 15.7428 8.875 16.1143V22.6857C8.875 23.0581 8.749 23.3705 8.497 23.6228C8.245 23.8751 7.9335 24.0009 7.5625 24H3.625C2.90312 24 2.28537 23.7428 1.77175 23.2285C1.25812 22.7142 1.00087 22.0952 1 21.3714Z" fill="black"/>
</svg>
