<svg width="18" height="18" viewBox="0 0 18 18" fill="none" xmlns="http://www.w3.org/2000/svg">
<path d="M7.65 13.75H9.34999V8.65H7.65V13.75ZM8.5 6.95C8.74083 6.95 8.94285 6.8684 9.10604 6.7052C9.26925 6.542 9.35056 6.34027 9.34999 6.1C9.34943 5.85973 9.26783 5.658 9.1052 5.4948C8.94256 5.3316 8.74083 5.25 8.5 5.25C8.25916 5.25 8.05743 5.3316 7.8948 5.4948C7.73216 5.658 7.65056 5.85973 7.65 6.1C7.64943 6.34027 7.73103 6.54228 7.8948 6.70605C8.05856 6.86982 8.26029 6.95113 8.5 6.95ZM8.5 18C7.32416 18 6.21916 17.7767 5.185 17.3302C4.15083 16.8837 3.25125 16.2782 2.48625 15.5137C1.72125 14.7493 1.11577 13.8497 0.669801 12.815C0.223834 11.7803 0.000567742 10.6753 1.07595e-06 9.5C-0.00056559 8.32473 0.222701 7.21973 0.669801 6.185C1.1169 5.15027 1.72238 4.25068 2.48625 3.48625C3.25012 2.72182 4.1497 2.11633 5.185 1.6698C6.2203 1.22327 7.3253 1 8.5 1C9.67469 1 10.7797 1.22327 11.815 1.6698C12.8503 2.11633 13.7499 2.72182 14.5137 3.48625C15.2776 4.25068 15.8834 5.15027 16.331 6.185C16.7787 7.21973 17.0017 8.32473 17 9.5C16.9983 10.6753 16.775 11.7803 16.3302 12.815C15.8854 13.8497 15.2799 14.7493 14.5137 15.5137C13.7476 16.2782 12.848 16.8839 11.815 17.331C10.782 17.7781 9.67696 18.0011 8.5 18ZM8.5 16.3C10.3983 16.3 12.0062 15.6412 13.3237 14.3237C14.6412 13.0062 15.3 11.3983 15.3 9.5C15.3 7.60167 14.6412 5.99375 13.3237 4.67625C12.0062 3.35875 10.3983 2.7 8.5 2.7C6.60166 2.7 4.99375 3.35875 3.67625 4.67625C2.35875 5.99375 1.7 7.60167 1.7 9.5C1.7 11.3983 2.35875 13.0062 3.67625 14.3237C4.99375 15.6412 6.60166 16.3 8.5 16.3Z" fill="#ADADAD"/>
</svg>
