<svg width="60" height="61" viewBox="0 0 60 61" fill="none" xmlns="http://www.w3.org/2000/svg">
<path d="M42.125 23.375H40.25V19.625C40.25 14.45 36.05 10.25 30.875 10.25C25.7 10.25 21.5 14.45 21.5 19.625V23.375H19.625C17.5625 23.375 15.875 25.0625 15.875 27.125V45.875C15.875 47.9375 17.5625 49.625 19.625 49.625H42.125C44.1875 49.625 45.875 47.9375 45.875 45.875V27.125C45.875 25.0625 44.1875 23.375 42.125 23.375ZM25.25 19.625C25.25 16.5125 27.7625 14 30.875 14C33.9875 14 36.5 16.5125 36.5 19.625V23.375H25.25V19.625ZM42.125 45.875H19.625V27.125H42.125V45.875ZM30.875 40.25C32.9375 40.25 34.625 38.5625 34.625 36.5C34.625 34.4375 32.9375 32.75 30.875 32.75C28.8125 32.75 27.125 34.4375 27.125 36.5C27.125 38.5625 28.8125 40.25 30.875 40.25Z" fill="#7C7C7C"/>
</svg>
