<svg width="35" height="22" viewBox="0 0 35 22" fill="none" xmlns="http://www.w3.org/2000/svg">
<rect x="1.34375" y="0.75" width="32.5" height="20.5" rx="3.25" stroke="black" stroke-width="1.5"/>
<path d="M12.1838 12.36H9.48375V13.75H12.9438V14.68H4.89375V13.75H8.31375V12.36H5.92375V9.41H10.7638V8.38H5.87375V7.45H11.9238V10.34H7.08375V11.42H12.1838V12.36ZM21.3961 14.53H13.3461V13.61H21.3961V14.53ZM20.3761 7.79C20.3761 9.87 20.2394 11.6333 19.9661 13.08L18.8261 12.97C18.9328 12.51 19.0228 11.8633 19.0961 11.03C19.1761 10.1967 19.2128 9.42333 19.2061 8.71H14.2661V7.79H20.3761ZM29.1584 13.34H27.9984V6.88H29.1584V13.34ZM29.3584 15.55H23.1784V12.7H24.3584V14.63H29.3584V15.55ZM22.0784 9.74C22.0784 9.1 22.2984 8.57333 22.7384 8.16C23.1851 7.74667 23.7684 7.54 24.4884 7.54C25.2151 7.54 25.7984 7.74667 26.2384 8.16C26.6784 8.57333 26.8984 9.1 26.8984 9.74C26.8984 10.3867 26.6784 10.9133 26.2384 11.32C25.7984 11.7267 25.2151 11.93 24.4884 11.93C23.7618 11.93 23.1784 11.7267 22.7384 11.32C22.2984 10.9133 22.0784 10.3867 22.0784 9.74ZM23.2784 9.74C23.2784 10.1 23.3884 10.3967 23.6084 10.63C23.8284 10.8567 24.1218 10.97 24.4884 10.97C24.8684 10.97 25.1651 10.8567 25.3784 10.63C25.5984 10.3967 25.7084 10.1 25.7084 9.74C25.7084 9.39333 25.5984 9.10667 25.3784 8.88C25.1584 8.65333 24.8618 8.54 24.4884 8.54C24.1218 8.54 23.8284 8.65333 23.6084 8.88C23.3884 9.10667 23.2784 9.39333 23.2784 9.74Z" fill="black"/>
</svg>
