<svg width="24" height="24" viewBox="0 0 24 24" fill="none" xmlns="http://www.w3.org/2000/svg">
<path d="M9.70324 20.7445C8.38475 21.1722 0.337374 23.4388 1.04384 14.9064C1.30614 11.7625 2.62463 8.83064 4.6426 6.48369C6.97182 3.77482 10.4342 1.14639 13.3055 4.77648C13.3824 4.87519 13.5188 4.90077 13.6203 4.82401C14.6765 4.04169 20.2442 0.312889 21.7306 7.47438C22.5385 11.3604 21.4893 15.3816 19.1216 18.4926C16.9497 21.344 14.0644 23.4205 10.053 20.7957C9.94806 20.7262 9.82215 20.708 9.70324 20.7445Z" stroke="black" stroke-width="1.8" stroke-miterlimit="10"/>
<path d="M15.3581 12.1349L10.5598 9.23957C10.1716 9.00561 9.68896 9.29806 9.68896 9.76599V15.5566C9.68896 16.0245 10.1716 16.317 10.5598 16.083L15.3581 13.1877C15.7464 12.9537 15.7464 12.3688 15.3581 12.1385V12.1349Z" fill="black"/>
</svg>
