<svg width="24" height="24" viewBox="0 0 24 24" fill="none" xmlns="http://www.w3.org/2000/svg">
<g clip-path="url(#clip0_1063_6792)">
<path fill-rule="evenodd" clip-rule="evenodd" d="M7.29947 20.737C7.4611 20.9059 7.67549 21 7.89838 21C8.12128 21 8.33567 20.9059 8.49729 20.737L15.5034 13.2994C15.6602 13.1355 15.7851 12.9382 15.8704 12.7195C15.9558 12.5008 15.9998 12.2653 15.9998 12.0273C15.9998 11.7893 15.9558 11.5538 15.8704 11.3351C15.7851 11.1164 15.6602 10.9191 15.5034 10.7551L8.44657 3.26263C8.11929 2.91613 7.58911 2.91163 7.25693 3.25363C7.17651 3.3351 7.11217 3.4339 7.06791 3.54387C7.02365 3.65385 7.00042 3.77266 6.99965 3.89292C6.99888 4.01319 7.0206 4.13234 7.06345 4.24299C7.1063 4.35364 7.16937 4.45342 7.24875 4.53613L13.7067 11.3914C13.7851 11.4734 13.8476 11.5721 13.8903 11.6815C13.933 11.7909 13.9551 11.9087 13.9551 12.0277C13.9551 12.1468 13.933 12.2646 13.8903 12.374C13.8476 12.4834 13.7851 12.582 13.7067 12.664L7.30029 19.4653C7.22184 19.5472 7.15936 19.6458 7.11666 19.7552C7.07397 19.8645 7.05195 19.9822 7.05195 20.1012C7.05195 20.2202 7.07397 20.3379 7.11666 20.4472C7.15936 20.5565 7.22102 20.6551 7.29947 20.737Z" fill="black"/>
</g>
<defs>
<clipPath id="clip0_1063_6792">
<rect width="9" height="18" fill="white" transform="translate(16 21) rotate(-180)"/>
</clipPath>
</defs>
</svg>
