<svg width="60" height="61" viewBox="0 0 60 61" fill="none" xmlns="http://www.w3.org/2000/svg">
<path d="M38 11.75H23C22.0054 11.75 21.0516 12.1451 20.3483 12.8483C19.6451 13.5516 19.25 14.5054 19.25 15.5V45.5C19.25 46.4946 19.6451 47.4484 20.3483 48.1516C21.0516 48.8549 22.0054 49.25 23 49.25H38C38.9946 49.25 39.9484 48.8549 40.6516 48.1516C41.3549 47.4484 41.75 46.4946 41.75 45.5V15.5C41.75 14.5054 41.3549 13.5516 40.6516 12.8483C39.9484 12.1451 38.9946 11.75 38 11.75ZM32.375 47.375H28.625V45.5H32.375V47.375ZM38 43.625H23V17.375H38V43.625Z" fill="#7C7C7C"/>
</svg>
