<svg width="20" height="20" viewBox="0 0 20 20" fill="none" xmlns="http://www.w3.org/2000/svg">
<path d="M18.8137 9.99414C18.4639 9.99414 18.1789 10.2648 18.1535 10.6144C17.8376 14.8324 14.3141 18.1537 10.012 18.1537C5.70983 18.1537 1.8478 14.4997 1.8478 9.99414H0C0 15.5203 4.48267 20.0005 10.012 20.0005C15.5412 20.0005 19.6346 15.8981 19.9985 10.7018C20.0239 10.3184 19.7192 9.99414 19.3327 9.99414H18.8109H18.8137Z" fill="black"/>
<path d="M10.012 1.18566C10.012 1.53527 9.74113 1.82004 9.39132 1.84542C5.17101 2.1612 1.8478 5.68272 1.8478 9.98242C1.8478 14.4879 5.50389 18.142 10.012 18.142V19.9887C4.48267 19.9887 0 15.5086 0 9.98242C0 4.69309 4.10465 0.365191 9.30387 0.00147839C9.68753 -0.0238969 10.012 0.280606 10.012 0.666875V1.18848V1.18566Z" fill="black"/>
<path d="M17.3267 6.93461V0.95732C17.3267 0.775133 17.1789 0.627441 16.9966 0.627441L16.2264 0.627441C16.0442 0.627441 15.8964 0.775133 15.8964 0.95732V6.93461C15.8964 7.1168 16.0442 7.26449 16.2264 7.26449H16.9966C17.1789 7.26449 17.3267 7.1168 17.3267 6.93461Z" fill="black"/>
<path d="M13.6253 4.65918L19.606 4.65918C19.7883 4.65918 19.936 4.51149 19.936 4.3293V3.55958C19.936 3.3774 19.7883 3.22971 19.606 3.22971L13.6253 3.22971C13.443 3.22971 13.2953 3.3774 13.2953 3.55958V4.3293C13.2953 4.51149 13.443 4.65918 13.6253 4.65918Z" fill="black"/>
<path d="M13.8346 9.17599C13.8346 10.129 13.5779 10.8902 13.0616 11.4598C12.5312 12.0462 11.7949 12.3394 10.8555 12.3394C10.6242 12.3394 10.2744 12.331 9.80609 12.3112C9.33779 12.2915 8.98516 12.2831 8.75101 12.2831C8.62124 12.2831 8.55636 12.3648 8.55636 12.5312C8.55636 12.7454 8.57046 13.0669 8.59585 13.4982C8.62124 13.9268 8.63535 14.251 8.63535 14.4653C8.63535 14.5358 8.59585 14.5696 8.51968 14.5696C8.43505 14.5696 8.30528 14.5612 8.1332 14.5415C7.96111 14.5245 7.83135 14.5133 7.74671 14.5133C7.67337 14.5133 7.56617 14.5189 7.42511 14.5302C7.28406 14.5415 7.17686 14.5471 7.10915 14.5471C7.00759 14.5471 6.95682 14.4851 6.95682 14.3582C6.95682 13.9155 6.97656 13.2501 7.01324 12.3592C7.04991 11.4682 7.06966 10.8 7.06966 10.3545C7.06966 9.09141 7.0217 7.73524 6.92861 6.28321L6.92296 6.19298C6.92014 6.10276 6.97092 6.06047 7.08094 6.06047C7.30099 6.06047 7.62823 6.06047 8.06831 6.06611C8.5084 6.06893 8.83847 6.07175 9.06133 6.07175C9.25316 6.07175 9.53809 6.06329 9.91893 6.04637C10.2998 6.02945 10.5847 6.021 10.7765 6.021C11.6708 6.021 12.4071 6.3255 12.9826 6.93169C13.5468 7.5266 13.8289 8.27376 13.8289 9.16753L13.8346 9.17599ZM12.3027 9.26621C12.3027 8.66003 12.1391 8.17226 11.8119 7.80854C11.4705 7.42791 11.0022 7.23619 10.4013 7.23619C10.2151 7.23619 9.88226 7.25311 9.4055 7.28412C8.85821 7.31796 8.57611 7.34897 8.55918 7.37998C8.53097 7.42791 8.51686 8.12433 8.51686 9.46922C8.51686 9.63838 8.52251 9.89496 8.53097 10.2361C8.54225 10.5773 8.54507 10.831 8.54507 11.003C8.54507 11.0397 8.59021 11.0679 8.67766 11.0876C8.90053 11.1327 9.51834 11.1553 10.5311 11.1553C11.0981 11.1553 11.541 10.9805 11.857 10.628C12.1532 10.2925 12.2999 9.83857 12.2999 9.26621H12.3027Z" fill="black"/>
</svg>
