<svg width="20" height="20" viewBox="0 0 20 20" fill="none" xmlns="http://www.w3.org/2000/svg">
<path d="M14.7092 6.37467C14.0046 5.45926 13.0484 4.7691 11.9576 4.38861C10.8668 4.00813 9.6888 3.95382 8.56765 4.23234C7.4465 4.51086 6.43085 5.11012 5.64494 5.95682C4.85903 6.80351 4.33695 7.86092 4.14258 8.99967M15.0009 3.33301V6.66634H11.6676M5.29091 13.6247C5.99539 14.5404 6.95159 15.2309 8.04245 15.6117C9.13331 15.9924 10.3115 16.0468 11.4328 15.7682C12.5541 15.4897 13.5699 14.8902 14.3558 14.0433C15.1416 13.1963 15.6635 12.1387 15.8576 10.9997M5.00008 16.6663V13.333H8.33341" stroke="#BEBEBE" stroke-width="2" stroke-linecap="round" stroke-linejoin="round"/>
</svg>
