<svg width="24" height="24" viewBox="0 0 24 24" fill="none" xmlns="http://www.w3.org/2000/svg">
<path d="M7.75 3C7.75 2.58579 7.41421 2.25 7 2.25C6.58579 2.25 6.25 2.58579 6.25 3H7H7.75ZM7 15H6.25V15.75H7V15ZM19.5303 15.5303C19.8232 15.2374 19.8232 14.7626 19.5303 14.4697L14.7574 9.6967C14.4645 9.40381 13.9896 9.40381 13.6967 9.6967C13.4038 9.98959 13.4038 10.4645 13.6967 10.7574L17.9393 15L13.6967 19.2426C13.4038 19.5355 13.4038 20.0104 13.6967 20.3033C13.9896 20.5962 14.4645 20.5962 14.7574 20.3033L19.5303 15.5303ZM7 3H6.25V15H7H7.75V3H7ZM7 15V15.75H19V15V14.25H7V15Z" fill="#484848"/>
</svg>
