<svg width="24" height="25" viewBox="0 0 24 25" fill="none" xmlns="http://www.w3.org/2000/svg">
<path d="M20.3501 9.42256L19.9841 9.21856L19.8711 9.15456C19.5985 8.99094 19.3688 8.76469 19.2011 8.49456C19.1831 8.46756 19.1671 8.43856 19.1351 8.38256C18.9195 8.03649 18.8148 7.63279 18.8351 7.22556L18.8411 6.80056C18.8531 6.12056 18.8591 5.77856 18.7631 5.47256C18.6781 5.2003 18.536 4.94936 18.3461 4.73656C18.1321 4.49656 17.8351 4.32456 17.2401 3.98256L16.7461 3.69756C16.1541 3.35656 15.8571 3.18556 15.5421 3.12056C15.2638 3.06297 14.9764 3.06536 14.6991 3.12756C14.3861 3.19756 14.0931 3.37356 13.5081 3.72356L13.5051 3.72556L13.1511 3.93656C13.0951 3.97056 13.0661 3.98656 13.0381 4.00256C12.7601 4.15756 12.4501 4.24256 12.1311 4.25256C12.0991 4.25456 12.0661 4.25456 12.0011 4.25456L11.8711 4.25356C11.552 4.2434 11.24 4.15699 10.9611 4.00156C10.9331 3.98656 10.9061 3.96956 10.8501 3.93556L10.4931 3.72156C9.90408 3.36756 9.60908 3.19156 9.29408 3.12056C9.01573 3.05826 8.72728 3.05621 8.44808 3.11456C8.13208 3.18056 7.83608 3.35256 7.24308 3.69656L7.24008 3.69756L6.75208 3.98056L6.74708 3.98456C6.15908 4.32456 5.86408 4.49656 5.65208 4.73556C5.46316 4.94796 5.32168 5.19818 5.23708 5.46956C5.14208 5.77656 5.14708 6.11856 5.15908 6.80256L5.16608 7.22656C5.16608 7.29156 5.16908 7.32356 5.16808 7.35456C5.1629 7.71788 5.05884 8.07293 4.86708 8.38156C4.83408 8.43756 4.81908 8.46556 4.80208 8.49156C4.63347 8.76373 4.40198 8.99145 4.12708 9.15556L4.01508 9.21856L3.65408 9.41856C3.05208 9.75156 2.75108 9.91856 2.53308 10.1566C2.33926 10.3664 2.19264 10.6153 2.10308 10.8866C2.00308 11.1936 2.00308 11.5366 2.00408 12.2246L2.00608 12.7876C2.00708 13.4706 2.00908 13.8116 2.11008 14.1166C2.19926 14.3861 2.34483 14.6336 2.53708 14.8426C2.75508 15.0786 3.05308 15.2446 3.65008 15.5766L4.00808 15.7756C4.06908 15.8096 4.10008 15.8256 4.12908 15.8436C4.44245 16.0314 4.69838 16.3015 4.86908 16.6246L4.93608 16.7446C5.10499 17.0635 5.18447 17.4221 5.16608 17.7826L5.15908 18.1896C5.14708 18.8756 5.14208 19.2196 5.23808 19.5266C5.32308 19.7986 5.46508 20.0496 5.65508 20.2626C5.86908 20.5026 6.16708 20.6736 6.76108 21.0166L7.25508 21.3016C7.84808 21.6426 8.14408 21.8136 8.45908 21.8786C8.73738 21.9361 9.02477 21.9338 9.30208 21.8716C9.61608 21.8016 9.90908 21.6256 10.4961 21.2736L10.8501 21.0616L10.9631 20.9956C11.2411 20.8416 11.5511 20.7556 11.8701 20.7456L12.0001 20.7446H12.1301C12.4481 20.7546 12.7601 20.8416 13.0401 20.9966L13.1321 21.0516L13.5081 21.2776C14.0981 21.6316 14.3921 21.8076 14.7071 21.8776C14.9853 21.9405 15.2737 21.9433 15.5531 21.8856C15.8681 21.8196 16.1661 21.6466 16.7591 21.3026L17.2541 21.0156C17.8421 20.6736 18.1371 20.5026 18.3491 20.2636C18.5391 20.0506 18.6791 19.8006 18.7641 19.5296C18.8591 19.2246 18.8541 18.8856 18.8421 18.2116L18.8341 17.7716V17.6446C18.8388 17.281 18.9425 16.9256 19.1341 16.6166L19.1991 16.5066C19.3677 16.2344 19.5992 16.0067 19.8741 15.8426L19.9841 15.7816L19.9861 15.7806L20.3471 15.5806C20.9491 15.2466 21.2501 15.0806 21.4691 14.8426C21.6631 14.6326 21.8091 14.3826 21.8981 14.1126C21.9981 13.8076 21.9981 13.4656 21.9961 12.7856L21.9941 12.2116C21.9931 11.5286 21.9921 11.1866 21.8911 10.8816C21.8015 10.6123 21.6556 10.3651 21.4631 10.1566C21.2461 9.92056 20.9481 9.75456 20.3521 9.42356L20.3501 9.42256Z" stroke="black" stroke-width="2" stroke-linecap="round" stroke-linejoin="round"/>
<path d="M8 12.5C8 13.5609 8.42143 14.5783 9.17157 15.3284C9.92172 16.0786 10.9391 16.5 12 16.5C13.0609 16.5 14.0783 16.0786 14.8284 15.3284C15.5786 14.5783 16 13.5609 16 12.5C16 11.4391 15.5786 10.4217 14.8284 9.67157C14.0783 8.92143 13.0609 8.5 12 8.5C10.9391 8.5 9.92172 8.92143 9.17157 9.67157C8.42143 10.4217 8 11.4391 8 12.5Z" stroke="black" stroke-width="2" stroke-linecap="round" stroke-linejoin="round"/>
</svg>
