<svg width="24" height="24" viewBox="0 0 24 24" fill="none" xmlns="http://www.w3.org/2000/svg">
<path d="M17.9385 14.6943C18.0931 14.6943 18.2262 14.7448 18.3105 14.8135C18.3917 14.8796 18.411 14.945 18.4111 14.9854V17.625C18.4111 18.0852 18.1873 18.5537 17.7412 18.917C17.2922 19.2826 16.6645 19.5 15.9941 19.5H3.58594V18.917H15.9941C16.3551 18.917 16.7168 18.8004 16.9971 18.5723C17.2801 18.3417 17.4667 18.0045 17.4668 17.625V14.9854C17.4669 14.945 17.4861 14.8796 17.5674 14.8135C17.6517 14.745 17.7841 14.6944 17.9385 14.6943ZM14.958 5.5C15.0738 5.49991 15.1776 5.52816 15.2578 5.57129L15.3301 5.61914L19.3994 8.93359C19.4807 8.99986 19.5 9.06512 19.5 9.10547C19.5 9.14581 19.4808 9.21101 19.3994 9.27734L15.3301 12.5918C15.2458 12.6604 15.1134 12.7109 14.959 12.7109C14.8045 12.7109 14.6713 12.6604 14.5869 12.5918H14.5879C14.5066 12.5255 14.4873 12.4602 14.4873 12.4199C14.4874 12.3796 14.5068 12.3142 14.5879 12.248L16.9941 10.2871L18.084 9.39941H6.41309C5.42574 9.39941 4.44434 10.0692 4.44434 11.0967V14.4883C4.44432 14.5286 4.42518 14.5938 4.34375 14.6602C4.25941 14.7288 4.12633 14.7803 3.97168 14.7803C3.81722 14.7802 3.68484 14.7288 3.60059 14.6602C3.51913 14.5938 3.50001 14.5286 3.5 14.4883V11.0967L3.5127 10.8838C3.57289 10.3881 3.84359 9.90298 4.31543 9.51855C4.85748 9.07693 5.61097 8.81665 6.41309 8.81641H18.0898L17 7.92773L14.5869 5.96484C14.5052 5.89841 14.4864 5.83244 14.4863 5.79199C14.4863 5.75157 14.5056 5.68648 14.5869 5.62012C14.6712 5.55145 14.8034 5.50015 14.958 5.5Z" stroke="black"/>
</svg>
