<svg width="24" height="24" viewBox="0 0 24 24" fill="none" xmlns="http://www.w3.org/2000/svg">
<path fill-rule="evenodd" clip-rule="evenodd" d="M4.3 3.2H19.7C19.9917 3.2 20.2715 3.31589 20.4778 3.52218C20.6841 3.72847 20.8 4.00826 20.8 4.3V19.7C20.8 19.9917 20.6841 20.2715 20.4778 20.4778C20.2715 20.6841 19.9917 20.8 19.7 20.8H4.3C4.00826 20.8 3.72847 20.6841 3.52218 20.4778C3.31589 20.2715 3.2 19.9917 3.2 19.7V4.3C3.2 4.00826 3.31589 3.72847 3.52218 3.52218C3.72847 3.31589 4.00826 3.2 4.3 3.2ZM1 4.3C1 3.42479 1.34768 2.58542 1.96655 1.96655C2.58542 1.34768 3.42479 1 4.3 1H19.7C20.5752 1 21.4146 1.34768 22.0335 1.96655C22.6523 2.58542 23 3.42479 23 4.3V19.7C23 20.5752 22.6523 21.4146 22.0335 22.0335C21.4146 22.6523 20.5752 23 19.7 23H4.3C3.42479 23 2.58542 22.6523 1.96655 22.0335C1.34768 21.4146 1 20.5752 1 19.7V4.3ZM12 12C8.9629 12 6.5 9.0454 6.5 5.4H8.7C8.7 8.2226 10.537 9.8 12 9.8C13.463 9.8 15.3 8.2226 15.3 5.4H17.5C17.5 9.0454 15.0371 12 12 12Z" fill="black"/>
</svg>
