<svg width="24" height="24" viewBox="0 0 24 24" fill="none" xmlns="http://www.w3.org/2000/svg">
<path d="M2.5 4C2.22386 4 2 4.22386 2 4.5V6.5C2 6.77614 2.22386 7 2.5 7H6.5C6.77614 7 7 7.22386 7 7.5V18.5C7 18.7761 7.22386 19 7.5 19H9.5C9.77614 19 10 18.7761 10 18.5V7.5C10 7.22386 10.2239 7 10.5 7H14.5C14.7761 7 15 6.77614 15 6.5V4.5C15 4.22386 14.7761 4 14.5 4H2.5ZM21 9.5C21 9.22386 20.7761 9 20.5 9H12.5C12.2239 9 12 9.22386 12 9.5V11.5C12 11.7761 12.2239 12 12.5 12H14.5C14.7761 12 15 12.2239 15 12.5V18.5C15 18.7761 15.2239 19 15.5 19H17.5C17.7761 19 18 18.7761 18 18.5V12.5C18 12.2239 18.2239 12 18.5 12H20.5C20.7761 12 21 11.7761 21 11.5V9.5Z" fill="#6E4F36"/>
</svg>
